<?xml version="1.0" encoding="UTF-8" standalone="no"?>
<!-- Created with Inkscape (http://www.inkscape.org/) -->

<svg
   width="256"
   height="256"
   viewBox="0 0 67.733332 67.733333"
   version="1.1"
   id="svg1"
   inkscape:version="1.4.2 (f4327f4, 2025-05-13)"
   sodipodi:docname="vine petal.svg"
   xml:space="preserve"
   xmlns:inkscape="http://www.inkscape.org/namespaces/inkscape"
   xmlns:sodipodi="http://sodipodi.sourceforge.net/DTD/sodipodi-0.dtd"
   xmlns:xlink="http://www.w3.org/1999/xlink"
   xmlns="http://www.w3.org/2000/svg"
   xmlns:svg="http://www.w3.org/2000/svg"
   xmlns:rdf="http://www.w3.org/1999/02/22-rdf-syntax-ns#"
   xmlns:cc="http://creativecommons.org/ns#"
   xmlns:dc="http://purl.org/dc/elements/1.1/"><sodipodi:namedview
     id="namedview1"
     pagecolor="#ffffff"
     bordercolor="#111111"
     borderopacity="1"
     inkscape:showpageshadow="0"
     inkscape:pageopacity="0"
     inkscape:pagecheckerboard="1"
     inkscape:deskcolor="#d1d1d1"
     inkscape:document-units="mm"
     inkscape:zoom="3.1523438"
     inkscape:cx="158.77075"
     inkscape:cy="125.4622"
     inkscape:window-width="1920"
     inkscape:window-height="1094"
     inkscape:window-x="-11"
     inkscape:window-y="-11"
     inkscape:window-maximized="1"
     inkscape:current-layer="layer1"
     showgrid="false" /><defs
     id="defs1"><inkscape:path-effect
       effect="bspline"
       id="path-effect26"
       is_visible="true"
       lpeversion="1.3"
       weight="33.333333"
       steps="2"
       helper_size="0"
       apply_no_weight="true"
       apply_with_weight="true"
       only_selected="false"
       uniform="false" /><inkscape:path-effect
       effect="bspline"
       id="path-effect24"
       is_visible="true"
       lpeversion="1.3"
       weight="33.333333"
       steps="2"
       helper_size="0"
       apply_no_weight="true"
       apply_with_weight="true"
       only_selected="false"
       uniform="false" /><inkscape:path-effect
       effect="bspline"
       id="path-effect22"
       is_visible="true"
       lpeversion="1.3"
       weight="33.333333"
       steps="2"
       helper_size="0"
       apply_no_weight="true"
       apply_with_weight="true"
       only_selected="false"
       uniform="false" /><inkscape:path-effect
       effect="bspline"
       id="path-effect12"
       is_visible="true"
       lpeversion="1.3"
       weight="33.333333"
       steps="2"
       helper_size="0"
       apply_no_weight="true"
       apply_with_weight="true"
       only_selected="false"
       uniform="false" /><inkscape:path-effect
       effect="bspline"
       id="path-effect11"
       is_visible="true"
       lpeversion="1.3"
       weight="33.333333"
       steps="2"
       helper_size="0"
       apply_no_weight="true"
       apply_with_weight="true"
       only_selected="false"
       uniform="false" /><inkscape:path-effect
       effect="bspline"
       id="path-effect10"
       is_visible="true"
       lpeversion="1.3"
       weight="33.333333"
       steps="2"
       helper_size="0"
       apply_no_weight="true"
       apply_with_weight="true"
       only_selected="false"
       uniform="false" /><inkscape:path-effect
       effect="bspline"
       id="path-effect9"
       is_visible="true"
       lpeversion="1.3"
       weight="33.333333"
       steps="2"
       helper_size="0"
       apply_no_weight="true"
       apply_with_weight="true"
       only_selected="false"
       uniform="false" /><inkscape:path-effect
       effect="bspline"
       id="path-effect8"
       is_visible="true"
       lpeversion="1.3"
       weight="33.333333"
       steps="2"
       helper_size="0"
       apply_no_weight="true"
       apply_with_weight="true"
       only_selected="false"
       uniform="false" /><inkscape:path-effect
       effect="spiro"
       id="path-effect7"
       is_visible="true"
       lpeversion="1" /><inkscape:path-effect
       effect="spiro"
       id="path-effect6"
       is_visible="true"
       lpeversion="1" /><inkscape:path-effect
       effect="bspline"
       id="path-effect5"
       is_visible="true"
       lpeversion="1.3"
       weight="33.333333"
       steps="2"
       helper_size="0"
       apply_no_weight="true"
       apply_with_weight="true"
       only_selected="false"
       uniform="false" /></defs><g
     inkscape:label="vine"
     inkscape:groupmode="layer"
     id="layer1"><path
       style="fill:none;fill-opacity:1;fill-rule:evenodd;stroke:#21853c;stroke-width:2.29666;stroke-linecap:round;stroke-linejoin:round;stroke-miterlimit:7.8;stroke-dasharray:none;stroke-opacity:1"
       transform="matrix(1.8075822,0,0,0.90269743,-25.689241,5.2906481)"
       d="m 25.683271,43.560841 c 2.71381,1.203029 5.427564,2.406034 6.784497,4.504352 1.356933,2.098319 1.356933,5.091903 1.356933,3.818875 0,-1.273028 0,-6.812446 1.343611,-10.357944 1.343611,-3.545499 4.030725,-5.096905 6.717893,-6.648342"
       id="path24"
       inkscape:label="vine 2"
       inkscape:original-d="m 25.683271,43.560841 c 2.71381,1.203029 5.427564,2.406033 8.14143,3.609088 0,2.993583 0,5.987167 0,8.98075 0,-5.539639 0,-11.079057 0,-16.618585 2.687222,-1.551469 5.374336,-3.102875 8.061504,-4.654312"
       inkscape:path-effect="#path-effect26" /><path
       style="display:inline;fill:none;fill-opacity:1;fill-rule:evenodd;stroke:#21853c;stroke-width:2.29666;stroke-linecap:round;stroke-linejoin:round;stroke-miterlimit:7.8;stroke-dasharray:none;stroke-opacity:1"
       transform="matrix(1.8075822,0,0,0.90269743,-25.689241,5.2906481)"
       d="m 33.824701,51.884064 c 0,-5.993891 0,-11.987783 -1.232202,-15.555211 -1.232202,-3.567427 -3.696504,-4.708342 -6.160858,-5.849281"
       id="path22"
       inkscape:label="vine 3"
       inkscape:original-d="m 33.824701,51.884064 c 0,-5.993891 0,-11.987783 0,-17.981676 -2.464404,-1.140962 -4.928706,-2.281877 -7.39306,-3.422816"
       inkscape:path-effect="#path-effect24" /><path
       style="display:inline;fill:none;fill-opacity:1;fill-rule:evenodd;stroke:#21853c;stroke-width:2.29666;stroke-linecap:round;stroke-linejoin:round;stroke-miterlimit:7.8;stroke-dasharray:none;stroke-opacity:1"
       transform="matrix(1.8075822,0,0,0.90269743,-25.689241,5.2906481)"
       d="m 33.824701,51.884063 c 0,-8.230004 0,-16.460006 1.036857,-21.173638 1.036858,-4.713633 3.11049,-5.910845 5.184164,-7.108081"
       id="path21"
       inkscape:label="vine 4"
       inkscape:original-d="m 33.824701,51.884063 c 0,-8.230004 0,-16.460006 0,-24.690011 2.073714,-1.197261 4.147346,-2.394473 6.221021,-3.591708"
       inkscape:path-effect="#path-effect22" /><path
       style="display:inline;fill:none;fill-opacity:1;fill-rule:evenodd;stroke:#21853c;stroke-width:2.29666;stroke-linecap:round;stroke-linejoin:round;stroke-miterlimit:7.8;stroke-dasharray:none;stroke-opacity:1"
       transform="matrix(1.8075822,0,0,0.90269743,-25.689241,5.2906481)"
       d="m 33.824701,51.884066 c 0,-9.628875 0,-19.257751 -0.363714,-24.995462 -0.363714,-5.737712 -1.091114,-7.584185 -1.818527,-9.430694"
       id="path11"
       inkscape:label="vine 5"
       inkscape:original-d="m 33.824701,51.884066 c 0,-9.628875 0,-19.257751 0,-28.886628 -0.727427,-1.846546 -1.454828,-3.693019 -2.182241,-5.539528"
       inkscape:path-effect="#path-effect12" /><g
       id="g20"
       transform="matrix(0.42010203,0,0,0.42010203,-1.4748195,30.086808)"
       inkscape:label="original petal"><path
         fill="#a760b1"
         d="m 55,23.571 q 0.298,0 0.596,0.015 0.298,0.015 0.594,0.044 0.296,0.029 0.592,0.073 0.296,0.044 0.587,0.102 0.291,0.058 0.581,0.13 0.29,0.072 0.575,0.16 0.285,0.088 0.566,0.186 0.281,0.098 0.556,0.215 0.275,0.117 0.545,0.241 0.27,0.124 0.532,0.268 0.262,0.144 0.519,0.294 0.257,0.15 0.503,0.319 0.246,0.169 0.487,0.343 0.241,0.174 0.47,0.367 0.229,0.193 0.452,0.39 0.223,0.197 0.431,0.41 0.208,0.213 0.411,0.432 0.203,0.219 0.39,0.451 0.187,0.232 0.366,0.47 0.179,0.238 0.343,0.487 0.164,0.249 0.32,0.504 0.156,0.255 0.293,0.518 0.137,0.263 0.268,0.533 0.131,0.27 0.242,0.544 0.111,0.274 0.214,0.557 0.103,0.283 0.187,0.565 0.084,0.282 0.159,0.575 0.075,0.293 0.13,0.581 0.055,0.288 0.102,0.588 0.047,0.3 0.073,0.591 0.026,0.291 0.044,0.594 0.018,0.303 0.015,0.596 -0.003,0.293 -0.015,0.596 -0.012,0.303 -0.044,0.595 -0.032,0.292 -0.073,0.591 -0.041,0.299 -0.101,0.587 -0.06,0.288 -0.131,0.582 -0.071,0.294 -0.159,0.574 -0.088,0.28 -0.187,0.566 -0.099,0.286 -0.214,0.556 -0.115,0.27 -0.242,0.545 -0.127,0.275 -0.268,0.532 -0.141,0.257 -0.294,0.519 -0.153,0.262 -0.319,0.504 -0.166,0.242 -0.343,0.487 -0.177,0.245 -0.366,0.47 -0.189,0.225 -0.39,0.45 -0.2,0.222 -0.41,0.433 -0.211,0.21 -0.432,0.41 -0.221,0.2 -0.452,0.39 -0.231,0.19 -0.47,0.367 -0.239,0.177 -0.487,0.343 -0.248,0.165 -0.503,0.319 -0.256,0.153 -0.519,0.293 -0.263,0.14 -0.532,0.268 -0.269,0.128 -0.545,0.242 -0.276,0.114 -0.556,0.214 -0.28,0.1 -0.566,0.187 -0.286,0.087 -0.575,0.16 -0.289,0.073 -0.581,0.13 -0.292,0.057 -0.587,0.102 -0.295,0.045 -0.592,0.073 -0.297,0.028 -0.594,0.044 -0.297,0.016 -0.596,0.014 -0.299,-0.002 -0.596,-0.014 -0.297,-0.012 -0.594,-0.044 -0.297,-0.03 -0.592,-0.073 -0.295,-0.044 -0.587,-0.102 -0.292,-0.058 -0.581,-0.13 -0.289,-0.072 -0.575,-0.16 -0.286,-0.088 -0.566,-0.187 -0.28,-0.099 -0.556,-0.214 -0.276,-0.115 -0.545,-0.242 -0.269,-0.127 -0.532,-0.268 -0.263,-0.141 -0.519,-0.293 -0.256,-0.152 -0.503,-0.32 -0.247,-0.168 -0.487,-0.342 -0.24,-0.174 -0.47,-0.367 -0.23,-0.19 -0.452,-0.39 -0.22,-0.2 -0.431,-0.41 -0.211,-0.211 -0.411,-0.432 -0.2,-0.22 -0.39,-0.451 -0.189,-0.23 -0.366,-0.47 -0.178,-0.24 -0.343,-0.487 -0.166,-0.248 -0.32,-0.504 -0.153,-0.256 -0.293,-0.519 -0.14,-0.262 -0.268,-0.532 -0.127,-0.27 -0.242,-0.545 -0.115,-0.275 -0.214,-0.556 -0.1,-0.28 -0.187,-0.566 -0.087,-0.286 -0.159,-0.574 -0.072,-0.29 -0.13,-0.582 -0.058,-0.292 -0.102,-0.587 -0.044,-0.295 -0.073,-0.591 -0.03,-0.297 -0.044,-0.595 -0.015,-0.298 -0.015,-0.596 0,-0.298 0.015,-0.596 0.014,-0.297 0.044,-0.594 0.03,-0.297 0.073,-0.591 0.043,-0.294 0.101,-0.588 0.059,-0.292 0.131,-0.581 0.072,-0.29 0.159,-0.575 0.087,-0.285 0.187,-0.565 0.1,-0.28 0.214,-0.557 0.114,-0.277 0.242,-0.544 0.128,-0.267 0.268,-0.533 0.14,-0.266 0.294,-0.518 0.154,-0.252 0.319,-0.504 0.165,-0.248 0.343,-0.487 0.177,-0.24 0.366,-0.47 0.19,-0.23 0.39,-0.451 0.2,-0.221 0.41,-0.432 0.21,-0.211 0.432,-0.41 0.221,-0.201 0.452,-0.39 0.23,-0.19 0.47,-0.367 0.24,-0.177 0.487,-0.343 0.247,-0.166 0.503,-0.319 0.256,-0.153 0.519,-0.294 0.263,-0.14 0.532,-0.268 0.27,-0.127 0.545,-0.241 0.276,-0.114 0.556,-0.215 0.28,-0.101 0.566,-0.187 0.286,-0.086 0.575,-0.159 0.289,-0.073 0.581,-0.13 0.292,-0.057 0.587,-0.102 0.295,-0.045 0.592,-0.073 0.296,-0.03 0.594,-0.044 0.298,-0.015 0.596,-0.015"
         id="path19"
         style="fill:#cf78a3;fill-opacity:1" /><path
         fill="#ce76db"
         d="m 55,27.857 q 0.193,0 0.386,0.01 0.192,0.01 0.384,0.028 0.192,0.018 0.383,0.047 0.191,0.029 0.38,0.066 0.189,0.037 0.376,0.085 0.187,0.046 0.372,0.102 0.184,0.056 0.366,0.121 0.182,0.065 0.36,0.14 0.178,0.075 0.352,0.156 0.174,0.081 0.345,0.173 0.171,0.092 0.335,0.19 0.164,0.098 0.326,0.206 0.162,0.108 0.315,0.222 0.153,0.114 0.305,0.238 0.152,0.124 0.292,0.252 0.142,0.13 0.279,0.265 0.136,0.137 0.266,0.28 0.13,0.143 0.252,0.292 0.122,0.149 0.237,0.304 0.115,0.155 0.222,0.315 0.107,0.16 0.206,0.326 0.099,0.166 0.19,0.335 0.091,0.169 0.174,0.345 0.083,0.176 0.156,0.353 0.073,0.177 0.139,0.36 0.065,0.18 0.12,0.365 0.057,0.185 0.104,0.372 0.047,0.187 0.084,0.376 0.037,0.189 0.066,0.38 0.029,0.191 0.047,0.383 0.018,0.192 0.029,0.385 0.01,0.192 0.01,0.385 0,0.193 -0.01,0.386 -0.01,0.192 -0.029,0.384 -0.019,0.192 -0.047,0.383 -0.028,0.191 -0.066,0.38 -0.038,0.189 -0.084,0.376 -0.047,0.188 -0.103,0.372 -0.056,0.185 -0.121,0.366 -0.065,0.182 -0.139,0.36 -0.074,0.178 -0.156,0.353 -0.082,0.175 -0.174,0.344 -0.092,0.169 -0.19,0.336 -0.098,0.167 -0.206,0.325 -0.108,0.158 -0.222,0.316 -0.114,0.158 -0.237,0.304 -0.123,0.146 -0.252,0.292 -0.129,0.146 -0.266,0.28 -0.137,0.134 -0.28,0.265 -0.143,0.131 -0.291,0.252 -0.148,0.121 -0.305,0.237 -0.157,0.116 -0.315,0.222 -0.158,0.106 -0.326,0.207 -0.168,0.101 -0.335,0.19 -0.167,0.089 -0.345,0.173 -0.178,0.084 -0.352,0.156 -0.174,0.072 -0.36,0.14 -0.182,0.064 -0.366,0.12 -0.185,0.056 -0.372,0.103 -0.187,0.047 -0.376,0.084 -0.189,0.037 -0.38,0.066 -0.191,0.029 -0.383,0.048 -0.192,0.019 -0.384,0.028 -0.192,0.009 -0.386,0.01 -0.194,10e-4 -0.386,-0.01 -0.192,-0.011 -0.384,-0.028 -0.192,-0.02 -0.383,-0.048 -0.19,-0.028 -0.38,-0.066 -0.189,-0.037 -0.376,-0.084 -0.187,-0.047 -0.372,-0.103 -0.185,-0.056 -0.366,-0.12 -0.181,-0.064 -0.36,-0.14 -0.179,-0.076 -0.352,-0.156 -0.175,-0.082 -0.345,-0.173 -0.17,-0.091 -0.335,-0.19 -0.166,-0.1 -0.326,-0.207 -0.16,-0.107 -0.315,-0.222 -0.155,-0.115 -0.305,-0.237 -0.15,-0.122 -0.292,-0.252 -0.142,-0.13 -0.279,-0.266 -0.136,-0.136 -0.266,-0.28 -0.13,-0.142 -0.252,-0.291 -0.122,-0.15 -0.237,-0.304 -0.115,-0.155 -0.222,-0.316 -0.107,-0.16 -0.206,-0.325 -0.1,-0.166 -0.19,-0.336 -0.091,-0.17 -0.174,-0.344 -0.082,-0.175 -0.156,-0.353 -0.074,-0.178 -0.139,-0.36 -0.065,-0.181 -0.12,-0.366 -0.057,-0.184 -0.104,-0.372 -0.047,-0.187 -0.084,-0.376 -0.037,-0.189 -0.066,-0.38 -0.029,-0.191 -0.047,-0.383 -0.02,-0.192 -0.029,-0.384 -0.01,-0.193 -0.01,-0.386 0,-0.193 0.01,-0.385 0.01,-0.193 0.029,-0.385 0.019,-0.192 0.047,-0.383 0.028,-0.19 0.066,-0.38 0.037,-0.189 0.084,-0.376 0.047,-0.187 0.103,-0.372 0.056,-0.185 0.121,-0.366 0.065,-0.181 0.139,-0.36 0.074,-0.179 0.156,-0.352 0.082,-0.173 0.174,-0.345 0.092,-0.172 0.19,-0.335 0.098,-0.163 0.206,-0.326 0.108,-0.163 0.222,-0.315 0.114,-0.152 0.237,-0.304 0.123,-0.15 0.252,-0.292 0.13,-0.143 0.266,-0.28 0.137,-0.136 0.28,-0.265 0.142,-0.13 0.291,-0.252 0.15,-0.123 0.305,-0.238 0.154,-0.115 0.315,-0.222 0.16,-0.107 0.326,-0.206 0.165,-0.1 0.335,-0.19 0.17,-0.091 0.345,-0.173 0.174,-0.083 0.352,-0.157 0.178,-0.074 0.36,-0.139 0.182,-0.065 0.366,-0.12 0.185,-0.057 0.372,-0.103 0.187,-0.047 0.376,-0.085 0.19,-0.037 0.38,-0.066 0.19,-0.028 0.383,-0.047 0.192,-0.019 0.384,-0.028 0.193,-0.01 0.386,-0.01"
         id="path20"
         style="fill:#ff94c9;fill-opacity:1;stroke-width:0.999773;stroke-dasharray:none" /></g><use
       x="0"
       y="0"
       xlink:href="#g20"
       id="use26"
       transform="translate(25.179677,-19.388351)"
       inkscape:label="petal 4" /><use
       x="0"
       y="0"
       xlink:href="#g20"
       id="use27"
       transform="translate(2.5179666,-12.421974)"
       inkscape:label="petal 3" /><use
       x="0"
       y="0"
       xlink:href="#g20"
       id="use28"
       transform="translate(28.033374,-7.9735644)"
       inkscape:label="petal 2" /><use
       x="0"
       y="0"
       xlink:href="#g20"
       id="use29"
       transform="translate(10.155803,-25.599338)"
       inkscape:label="petal 5" /></g><metadata
     id="metadata1"><rdf:RDF><cc:Work
         rdf:about=""><dc:language>English</dc:language><dc:subject><rdf:Bag><rdf:li>florr.io</rdf:li></rdf:Bag></dc:subject><dc:creator><cc:Agent><dc:title>Tactical_Nerd</dc:title></cc:Agent></dc:creator><cc:license
           rdf:resource="http://creativecommons.org/licenses/by-sa/4.0/" /></cc:Work><cc:License
         rdf:about="http://creativecommons.org/licenses/by-sa/4.0/"><cc:permits
           rdf:resource="http://creativecommons.org/ns#Reproduction" /><cc:permits
           rdf:resource="http://creativecommons.org/ns#Distribution" /><cc:requires
           rdf:resource="http://creativecommons.org/ns#Notice" /><cc:requires
           rdf:resource="http://creativecommons.org/ns#Attribution" /><cc:permits
           rdf:resource="http://creativecommons.org/ns#DerivativeWorks" /><cc:requires
           rdf:resource="http://creativecommons.org/ns#ShareAlike" /></cc:License></rdf:RDF></metadata></svg>
